<!-- Generated by IcoMoon.io -->
<svg version="1.1" xmlns="http://www.w3.org/2000/svg" width="22" height="22" viewBox="0 0 1024 1024">
<path fill="#fff" d="M602.561 512.011l402.675-402.675c25.018-24.996 25.018-65.554 0-90.551-25.018-25.018-65.533-25.018-90.551 0l-402.675 402.675-402.697-402.675c-25.018-25.018-65.533-25.018-90.551 0-25.018 24.996-25.018 65.554 0 90.551l402.697 402.675-402.697 402.675c-25.018 24.996-25.018 65.554 0 90.551 12.509 12.488 28.903 18.742 45.275 18.742s32.766-6.254 45.275-18.763l402.697-402.675 402.675 402.675c12.509 12.509 28.903 18.763 45.275 18.763s32.766-6.254 45.275-18.763c25.018-24.996 25.018-65.554 0-90.551l-402.675-402.654z"></path>
</svg>
