<svg xmlns="http://www.w3.org/2000/svg" width="21.031" height="26.31" viewBox="0 0 21.031 26.31">
  <path fill="#fff" fill-rule="evenodd" d="M427.315,4561.19c-2.771,4.66-5.636,6.18-8.441,9.74a2.156,2.156,0,0,1-.416.31h-0.422a3.934,3.934,0,0,1-.506-0.46c-2.681-3.46-5.3-4.87-7.978-9.37a11.119,11.119,0,0,1-1.618-7.04,10.226,10.226,0,0,1,5.959-8.42,9.894,9.894,0,0,1,3.544-.96,1.05,1.05,0,0,0,.169-0.05h1.565c0.57,0.1,1.146.17,1.708,0.3a10.491,10.491,0,0,1,7.866,8.37A10.984,10.984,0,0,1,427.315,4561.19Zm0.068-7.64a9.128,9.128,0,0,0-12.52-6.57,8.745,8.745,0,0,0-5.605,7.46,9.774,9.774,0,0,0,1.431,6.29c1.829,3.08,6.839,8.07,7.564,9.01a0.821,0.821,0,0,0,.1-0.1c2.622-3.34,5.325-4.89,7.9-9.27A9.28,9.28,0,0,0,427.383,4553.55Zm-9.073,7.28a5.255,5.255,0,1,1,5.3-5.27A5.276,5.276,0,0,1,418.31,4560.83Zm-0.01-9.2a3.94,3.94,0,1,0,3.982,3.95A3.959,3.959,0,0,0,418.3,4551.63Z" transform="translate(-407.875 -4544.94)"/>
</svg>
