<svg xmlns="http://www.w3.org/2000/svg" width="22.62" height="16.28" viewBox="0 0 22.62 16.28">
  <path fill="#fff" fill-rule="evenodd" d="M1359.63,6766.36v15.57a0.624,0.624,0,0,1-.64.36h-21.35a0.61,0.61,0,0,1-.64-0.36v-15.57a0.624,0.624,0,0,1,.64-0.36h21.35A0.624,0.624,0,0,1,1359.63,6766.36Zm-15.4,6.53c-1.94,2.81-3.86,5.6-5.79,8.39h19.76c-1.95-2.81-3.87-5.59-5.8-8.38-0.09.07-.17,0.14-0.24,0.2-0.86.73-1.71,1.47-2.57,2.19a1.866,1.866,0,0,1-2.54.01c-0.31-.26-0.62-0.53-0.93-0.8C1345.5,6773.97,1344.87,6773.44,1344.23,6772.89Zm-5.39-5.89c0.08,0.07.12,0.11,0.17,0.15l8.61,7.35a0.928,0.928,0,0,0,1.38,0q3.915-3.33,7.81-6.65c0.32-.28.63-0.55,0.98-0.85h-18.95Zm-0.85.56v12.65c1.85-2.67,3.67-5.31,5.49-7.95C1341.65,6770.69,1339.83,6769.14,1337.99,6767.56Zm15.16,4.7c1.83,2.64,3.65,5.28,5.49,7.95v-12.64C1356.8,6769.14,1354.98,6770.69,1353.15,6772.26Z" transform="translate(-1337 -6766)"/>
</svg>
