<svg xmlns="http://www.w3.org/2000/svg" width="18.25" height="18.25" viewBox="0 0 18.25 18.25">
<path fill="#fff" fill-rule="evenodd" d="M1417.65,56.412a5.962,5.962,0,0,1-.3,1.05,5.282,5.282,0,0,1-3.59,2.9c-0.33.077-.66,0.124-0.99,0.184h-0.93a0.484,0.484,0,0,0-.1-0.027,9.7,9.7,0,0,1-3.24-.849,16.419,16.419,0,0,1-7.47-6.7,10.958,10.958,0,0,1-1.47-3.909c-0.06-.4-0.08-0.8-0.12-1.2V47.652a1.739,1.739,0,0,0,.02-0.228,5.95,5.95,0,0,1,.29-1.731,5.3,5.3,0,0,1,2.68-3.026,6.772,6.772,0,0,1,1.07-.36h0.57a3.042,3.042,0,0,1,.51.147,3,3,0,0,1,.7.417c0.52,0.484,1.03.987,1.51,1.51a2.518,2.518,0,0,1,.67,2.065,2.809,2.809,0,0,1-.97,1.772,2.056,2.056,0,0,0-.57.87,1.974,1.974,0,0,0,.34,1.9,16.316,16.316,0,0,0,2.72,2.727,2.024,2.024,0,0,0,2.66-.116c0.09-.085.18-0.175,0.27-0.263a2.576,2.576,0,0,1,3.69-.139c0.53,0.462,1.01.974,1.49,1.483a2.078,2.078,0,0,1,.56,1.3l0.03,0.12v0.178Zm-1.32-1.407c-0.4-.4-0.79-0.793-1.19-1.184a1.849,1.849,0,0,0-2.61,0c-0.11.1-.21,0.211-0.32,0.314a2.805,2.805,0,0,1-3.72.191,16.75,16.75,0,0,1-2.84-2.841,2.745,2.745,0,0,1-.43-2.754,3.5,3.5,0,0,1,.93-1.286,1.846,1.846,0,0,0-.01-2.624c-0.37-.376-0.74-0.749-1.12-1.121a1.721,1.721,0,0,0-2.28-.335,4.592,4.592,0,0,0-2.49,3.952,8.681,8.681,0,0,0,.63,3.6,13.689,13.689,0,0,0,2.66,4.145,15.807,15.807,0,0,0,5.04,3.8,9.232,9.232,0,0,0,3.49.911,4.913,4.913,0,0,0,2.85-.734,4.511,4.511,0,0,0,1.8-2.035A1.707,1.707,0,0,0,1416.33,55.005Zm-5.48-9.538a4.7,4.7,0,0,1,3.64,3.558,0.824,0.824,0,0,1,.02.111,0.4,0.4,0,0,1-.32.423,0.383,0.383,0,0,1-.43-0.237c-0.05-.145-0.08-0.3-0.13-0.443a3.866,3.866,0,0,0-2.83-2.62,0.439,0.439,0,0,1-.42-0.37A0.381,0.381,0,0,1,1410.85,45.467Zm5.41,6.29a0.4,0.4,0,0,1-.3-0.5,6.179,6.179,0,0,0-3.93-6.97,6.076,6.076,0,0,0-3.26-.281,0.714,0.714,0,0,1-.33-0.007,0.343,0.343,0,0,1-.24-0.376,0.354,0.354,0,0,1,.31-0.358c0.46-.071.93-0.12,1.39-0.18a7.022,7.022,0,0,1,6.86,5.884,6.591,6.591,0,0,1-.03,2.425A0.391,0.391,0,0,1,1416.26,51.757Z" transform="translate(-1399.44 -42.313)"/>
</svg>
